<svg width="197" height="60" fill="none" xmlns="http://www.w3.org/2000/svg"><path d="M4.328 38.528c-.512 0-1.072-.16-1.68-.48A4.26 4.26 0 011.16 36.8c-.416-.576-.624-1.184-.624-1.824 0-.64.144-1.248.432-1.824.64-1.344 1.664-2.64 3.072-3.888A27.86 27.86 0 018.504 26c1.536-.896 2.752-1.456 3.648-1.68.896-.224 1.76-.336 2.592-.336.864 0 1.6.224 2.208.672.608.416.912.864.912 1.344 0 .16-.016.256-.048.288-.032.032-.112.016-.24-.048-.384-.608-1.184-.912-2.4-.912-1.184 0-2.544.4-4.08 1.2a20.698 20.698 0 00-4.272 2.928 19.166 19.166 0 00-2.976 3.6c-.832 1.312-1.248 2.272-1.248 2.88 0 1.184.336 1.776 1.008 1.776.672 0 1.696-.544 3.072-1.632 2.272-1.92 3.824-3.328 4.656-4.224 2.944-3.168 4.528-4.752 4.752-4.752.384 0 .848.112 1.392.336.544.224.72.496.528.816-1.632 2.304-2.592 4.624-2.88 6.96-.032.288-.048.656-.048 1.104 0 .448.128.816.384 1.104.48.512 1.136.544 1.968.096.832-.448 1.984-1.344 3.456-2.688 1.504-1.344 2.704-2.656 3.6-3.936.128-.16.272-.192.432-.096.16.064.24.128.24.192 0 .48-.768 1.536-2.304 3.168-1.504 1.6-2.656 2.688-3.456 3.264-1.504 1.12-2.896 1.68-4.176 1.68-1.216 0-2.032-.608-2.448-1.824a5.354 5.354 0 01-.144-1.296c0-1.44.304-2.96.912-4.56-.128.064-.72.704-1.776 1.92s-2.288 2.384-3.696 3.504c-1.376 1.12-2.624 1.68-3.744 1.68zm42.097-7.248c-.48.864-1.344 1.968-2.592 3.312-1.248 1.344-2.368 2.384-3.36 3.12-1.28.928-2.672 1.392-4.176 1.392-.288 0-.672-.144-1.152-.432a1.942 1.942 0 01-.912-1.152 4.978 4.978 0 01-.24-1.488c0-1.664.32-3.312.96-4.944-.096.064-.544.752-1.344 2.064a18.976 18.976 0 01-2.88 3.648c-1.12 1.152-2.256 1.728-3.408 1.728-.544 0-1.168-.144-1.872-.432-1.28-.576-1.92-1.632-1.92-3.168 0-1.888.64-3.824 1.92-5.808 1.312-2.016 2.144-3.088 2.496-3.216.48-.128.928-.192 1.344-.192.448 0 .896.096 1.344.288.448.16.384.448-.192.864-2.208 2.016-3.776 4.256-4.704 6.72-.352.96-.528 1.776-.528 2.448 0 .64.16 1.056.48 1.248.352.192.688.288 1.008.288.768 0 1.808-.528 3.12-1.584 1.344-1.088 3.184-3.328 5.52-6.72.32-.48.88-1.408 1.68-2.784.8-1.408 1.28-2.24 1.44-2.496.512 0 1.104.128 1.776.384.704.224.944.528.72.912-1.536 2.56-2.624 4.448-3.264 5.664-.608 1.216-1.024 2.64-1.248 4.272-.032.288-.048.656-.048 1.104 0 .448.128.816.384 1.104.48.512 1.136.544 1.968.096.864-.48 2.032-1.376 3.504-2.688 1.472-1.344 2.656-2.656 3.552-3.936.128-.16.272-.192.432-.096.192.064.288.144.288.24a.467.467 0 01-.096.24zm6.495-6.72c2.464-.224 3.952-.336 4.464-.336.544 0 .816.08.816.24 0 .192-.384.4-1.152.624-.736.192-2.56.448-5.472.768-.16.288-.352.624-.576 1.008-.48.768-.736 1.232-.768 1.392-1.824 3.648-2.784 5.968-2.88 6.96-.032.288-.048.656-.048 1.104 0 .448.128.816.384 1.104.448.512 1.088.544 1.92.096.832-.448 1.984-1.344 3.456-2.688 1.504-1.344 2.72-2.656 3.648-3.936.128-.16.288-.192.48-.096.48.224-.352 1.488-2.496 3.792-2.048 2.208-3.76 3.568-5.136 4.08-.8.288-1.472.432-2.016.432-1.28 0-2.128-.608-2.544-1.824a3.004 3.004 0 01-.096-.816c0-1.12.512-2.816 1.536-5.088-.16.352-.784 1.152-1.872 2.4-.288.32-.512.32-.672 0a.534.534 0 01-.048-.24c0-.128.064-.272.192-.432 1.568-1.952 2.8-3.6 3.696-4.944 0-.032.352-.704 1.056-2.016-.32.064-.656.096-1.008.096-.32 0-.56-.096-.72-.288-.16-.224-.176-.48-.048-.768.224-.512 1.072-.8 2.544-.864.032-.064.096-.096.192-.096l2.4-4.464c.128-.256.272-.512.432-.768.16-.288.272-.496.336-.624l.288-.48c.096-.16.176-.272.24-.336l.192-.192c.128-.192.496-.288 1.104-.288.64 0 1.072.176 1.296.528.096.128.144.352.144.672 0 .288-.112.624-.336 1.008-.224.352-.464.608-.72.768-.256.16-.432.336-.528.528l-2.304 4.032.624-.048zm13.084 8.16c.576-1.184.864-2.096.864-2.736 0-.64-.08-1.136-.24-1.488-.128-.384-.064-.704.192-.96.288-.256.64-.352 1.056-.288.64.16.96.88.96 2.16 0 1.28-.752 2.96-2.256 5.04.032.864.48 1.296 1.344 1.296.864 0 2.176-.928 3.936-2.784.832-.96 1.344-1.584 1.536-1.872.224-.288.416-.384.576-.288.16.064.24.128.24.192 0 .32-.576 1.152-1.728 2.496-1.824 2.24-3.44 3.36-4.848 3.36-.928 0-1.584-.4-1.968-1.2a51.599 51.599 0 01-1.872 1.872c-1.248 1.056-2.64 1.584-4.176 1.584-.864 0-1.584-.208-2.16-.624-1.12-.672-1.68-1.872-1.68-3.6 0-1.888.64-3.808 1.92-5.76a13.92 13.92 0 012.592-3.024c1.568-1.376 3.056-2.064 4.464-2.064.352 0 .688.048 1.008.144.96.32 1.44.928 1.44 1.824 0 .736-.192 1.104-.576 1.104-.16-.064-.24-.304-.24-.72 0-.576-.32-.864-.96-.864-1.12 0-2.56 1.024-4.32 3.072-1.76 2.048-2.816 4.112-3.168 6.192a6.753 6.753 0 00-.096 1.2c0 .416.144.912.432 1.488.288.544.816.816 1.584.816.8 0 1.664-.352 2.592-1.056.928-.704 1.76-1.6 2.496-2.688l-.144-.288c-.128-.512-.064-.928.192-1.248.256-.32.592-.416 1.008-.288zm19.505-3.456A27.86 27.86 0 0189.973 26c1.536-.896 2.752-1.456 3.648-1.68a10.859 10.859 0 012.64-.336c.864 0 1.68.288 2.448.864 4.384-10.176 8.576-15.264 12.576-15.264 1.344 0 2.256.384 2.736 1.152.224.384.336.72.336 1.008 0 .8-.352 1.824-1.056 3.072-.672 1.216-1.728 2.56-3.168 4.032-1.44 1.472-3.504 3.296-6.192 5.472-2.688 2.144-4.176 3.344-4.464 3.6-1.024 2.368-1.824 4.656-2.4 6.864-.576 2.208-.864 3.856-.864 4.944s.192 1.952.576 2.592c.192.416.48.656.864.72.384.096.704.048.96-.144.288-.16.496-.304.624-.432.16-.128.336-.256.528-.384.224-.096.384-.112.48-.048.096.064.08.24-.048.528-.256.32-.496.592-.72.816-.512.352-1.12.528-1.824.528-.672 0-1.12-.016-1.344-.048-1.536-.256-2.304-1.376-2.304-3.36 0-1.92.256-3.696.768-5.328.704-2.24 1.344-4.096 1.92-5.568-5.12 5.952-8.752 8.928-10.896 8.928-.512 0-1.072-.16-1.68-.48a4.26 4.26 0 01-1.488-1.248c-.416-.576-.624-1.184-.624-1.824 0-.64.144-1.248.432-1.824.64-1.344 1.664-2.64 3.072-3.888zm12.816-3.648c-.384-.192-1.056-.288-2.016-.288s-2.208.4-3.744 1.2a20.698 20.698 0 00-4.272 2.928 19.166 19.166 0 00-2.976 3.6c-.832 1.312-1.248 2.272-1.248 2.88 0 1.184.336 1.776 1.008 1.776.672 0 1.696-.544 3.072-1.632 3.552-2.912 6.72-5.856 9.504-8.832l.672-1.632zm14.064-12.096c.416-.768.624-1.408.624-1.92 0-.544-.24-.816-.72-.816-.448 0-1.056.288-1.824.864-3.52 2.688-6.704 7.184-9.552 13.488 2.08-1.344 4.256-3.136 6.528-5.376 2.272-2.24 3.92-4.32 4.944-6.24zm.096 10.512c1.728 0 2.592.832 2.592 2.496 0 .864-.24 1.568-.72 2.112-.8 1.184-2.096 2.224-3.888 3.12-1.792.864-3.312 1.344-4.56 1.44-.448.032-.688-.096-.72-.384-.032-.128 0-.208.096-.24.128-.032.224-.048.288-.048.736-.064 1.68-.416 2.832-1.056 2.144-1.152 3.712-2.336 4.704-3.552.416-.576.624-1.12.624-1.632 0-.544-.256-.816-.768-.816-.416 0-.976.176-1.68.528-1.504.704-3.088 1.936-4.752 3.696-1.664 1.728-2.752 3.424-3.264 5.088a5.125 5.125 0 00-.24 1.536c0 .48.208.944.624 1.392.416.448 1.056.672 1.92.672.96 0 2.064-.256 3.312-.768 3.616-1.472 6.4-3.696 8.352-6.672.192-.256.368-.304.528-.144.128.064.192.144.192.24s-.048.208-.144.336a17.138 17.138 0 01-3.648 4.272c-2.848 2.432-5.616 3.648-8.304 3.648-2.304 0-3.92-.688-4.848-2.064-.352-.544-.528-1.2-.528-1.968s.208-1.68.624-2.736c.8-1.824 2.512-3.696 5.136-5.616 2.624-1.92 4.704-2.88 6.24-2.88zm31.396-10.512c.384-.704.576-1.248.576-1.632 0-.672-.272-1.008-.816-1.008-.448 0-1.008.256-1.68.768-2.56 1.984-5.04 5.12-7.44 9.408-1.92 3.456-3.328 6.416-4.224 8.88 2.208-1.504 4.672-3.952 7.392-7.344 2.752-3.392 4.816-6.416 6.192-9.072zm-14.304 18.336c-.384 1.088-.592 1.824-.624 2.208-.032.352-.048.848-.048 1.488 0 .608.16 1.168.48 1.68.544.864 1.456.928 2.736.192.96-.512 2.176-1.44 3.648-2.784 1.472-1.376 2.608-2.624 3.408-3.744a.323.323 0 01.288-.144c.288 0 .368.208.24.624-.48.864-1.376 1.968-2.688 3.312-1.28 1.344-2.448 2.416-3.504 3.216-1.056.768-2.112 1.152-3.168 1.152-2.432 0-3.648-1.184-3.648-3.552v-.288c.128-2.24 1.264-5.616 3.408-10.128 2.144-4.544 4.08-7.968 5.808-10.272l1.488-1.872c.352-.416.864-.928 1.536-1.536 1.28-1.216 2.592-1.824 3.936-1.824 1.376 0 2.304.416 2.784 1.248.16.288.24.704.24 1.248s-.24 1.312-.72 2.304c-3.296 5.728-8.496 11.552-15.6 17.472zm31.505-.576c-.48.864-1.344 1.968-2.592 3.312-1.248 1.344-2.368 2.384-3.36 3.12-1.28.928-2.672 1.392-4.176 1.392-.288 0-.672-.144-1.152-.432a1.942 1.942 0 01-.912-1.152 4.978 4.978 0 01-.24-1.488c0-1.664.32-3.312.96-4.944-.096.064-.544.752-1.344 2.064a18.976 18.976 0 01-2.88 3.648c-1.12 1.152-2.256 1.728-3.408 1.728-.544 0-1.168-.144-1.872-.432-1.28-.576-1.92-1.632-1.92-3.168 0-1.888.64-3.824 1.92-5.808 1.312-2.016 2.144-3.088 2.496-3.216.48-.128.928-.192 1.344-.192.448 0 .896.096 1.344.288.448.16.384.448-.192.864-2.208 2.016-3.776 4.256-4.704 6.72-.352.96-.528 1.776-.528 2.448 0 .64.16 1.056.48 1.248.352.192.688.288 1.008.288.768 0 1.808-.528 3.12-1.584 1.344-1.088 3.184-3.328 5.52-6.72.32-.48.88-1.408 1.68-2.784.8-1.408 1.28-2.24 1.44-2.496.512 0 1.104.128 1.776.384.704.224.944.528.72.912-1.536 2.56-2.624 4.448-3.264 5.664-.608 1.216-1.024 2.64-1.248 4.272-.032.288-.048.656-.048 1.104 0 .448.128.816.384 1.104.48.512 1.136.544 1.968.096.864-.48 2.032-1.376 3.504-2.688 1.472-1.344 2.656-2.656 3.552-3.936.128-.16.272-.192.432-.096.192.064.288.144.288.24a.467.467 0 01-.096.24zm17.391-5.952c0 .384-.368.576-1.104.576a15.451 15.451 0 00-4.56 2.736l-3.456 2.688c0 .928.592 2.464 1.776 4.608.544 1.056 1.232 1.584 2.064 1.584.864 0 1.872-.592 3.024-1.776.544-.576 1.856-2.192 3.936-4.848.16-.192.304-.24.432-.144.16.096.24.192.24.288a.773.773 0 01-.096.336c-1.472 2.24-2.944 4.064-4.416 5.472-1.504 1.376-2.896 2.064-4.176 2.064-.256 0-.512-.032-.768-.096-1.6-.352-2.96-2.208-4.08-5.568-6.528 6.624-9.856 11.296-9.984 14.016 0 .384-.112.576-.336.576l-.24-.096a.651.651 0 01-.192-.48c0-1.728.848-3.824 2.544-6.288 1.696-2.432 3.392-4.544 5.088-6.336 1.696-1.792 2.544-2.736 2.544-2.832 0-.768-.224-1.536-.672-2.304-.448-.8-.816-1.248-1.104-1.344-.288-.128-.592-.096-.912.096-.512.32-1.04.832-1.584 1.536-.512.672-.816 1.056-.912 1.152-.064.096-.16.224-.288.384-.128.16-.272.336-.432.528-.16.16-.336.24-.528.24-.16-.032-.24-.128-.24-.288 0-.16.064-.32.192-.48.128-.192.496-.704 1.104-1.536.64-.832 1.168-1.52 1.584-2.064.448-.576.96-1.12 1.536-1.632.608-.512 1.136-.768 1.584-.768.448 0 .864.16 1.248.48.384.32.64.64.768.96.128.32.304.896.528 1.728.256.8.432 1.344.528 1.632 2.4-2.368 4.8-4.304 7.2-5.808.256-.096.496-.144.72-.144l.72.144c.48.224.72.56.72 1.008zm12.199-1.296c1.728 0 2.592.832 2.592 2.496 0 .864-.24 1.568-.72 2.112-.8 1.184-2.096 2.224-3.888 3.12-1.792.864-3.312 1.344-4.56 1.44-.448.032-.688-.096-.72-.384-.032-.128 0-.208.096-.24.128-.032.224-.048.288-.048.736-.064 1.68-.416 2.832-1.056 2.144-1.152 3.712-2.336 4.704-3.552.416-.576.624-1.12.624-1.632 0-.544-.256-.816-.768-.816-.416 0-.976.176-1.68.528-1.504.704-3.088 1.936-4.752 3.696-1.664 1.728-2.752 3.424-3.264 5.088a5.125 5.125 0 00-.24 1.536c0 .48.208.944.624 1.392.416.448 1.056.672 1.92.672.96 0 2.064-.256 3.312-.768 3.616-1.472 6.4-3.696 8.352-6.672.192-.256.368-.304.528-.144.128.064.192.144.192.24s-.048.208-.144.336a17.138 17.138 0 01-3.648 4.272c-2.848 2.432-5.616 3.648-8.304 3.648-2.304 0-3.92-.688-4.848-2.064-.352-.544-.528-1.2-.528-1.968s.208-1.68.624-2.736c.8-1.824 2.512-3.696 5.136-5.616 2.624-1.92 4.704-2.88 6.24-2.88z" fill="#fff"/></svg>