<svg width="197" height="60" viewBox="0 0 197 60" fill="none" xmlns="http://www.w3.org/2000/svg">
<path d="M4.32781 38.528C3.81581 38.528 3.25581 38.368 2.64781 38.048C2.07181 37.76 1.57581 37.344 1.15981 36.8C0.743813 36.224 0.535813 35.616 0.535813 34.976C0.535813 34.336 0.679813 33.728 0.967813 33.152C1.60781 31.808 2.63181 30.512 4.03981 29.264C5.47981 27.984 6.96781 26.896 8.50381 26C10.0398 25.104 11.2558 24.544 12.1518 24.32C13.0478 24.096 13.9118 23.984 14.7438 23.984C15.6078 23.984 16.3438 24.208 16.9518 24.656C17.5598 25.072 17.8638 25.52 17.8638 26C17.8638 26.16 17.8478 26.256 17.8158 26.288C17.7838 26.32 17.7038 26.304 17.5758 26.24C17.1918 25.632 16.3918 25.328 15.1758 25.328C13.9918 25.328 12.6318 25.728 11.0958 26.528C9.59181 27.296 8.16781 28.272 6.82381 29.456C5.70381 30.512 4.71181 31.712 3.84781 33.056C3.01581 34.368 2.59981 35.328 2.59981 35.936C2.59981 37.12 2.93581 37.712 3.60781 37.712C4.27981 37.712 5.30381 37.168 6.67981 36.08C8.95181 34.16 10.5038 32.752 11.3358 31.856C14.2798 28.688 15.8638 27.104 16.0878 27.104C16.4718 27.104 16.9358 27.216 17.4798 27.44C18.0238 27.664 18.1998 27.936 18.0078 28.256C16.3758 30.56 15.4158 32.88 15.1278 35.216C15.0958 35.504 15.0798 35.872 15.0798 36.32C15.0798 36.768 15.2078 37.136 15.4638 37.424C15.9438 37.936 16.5998 37.968 17.4318 37.52C18.2638 37.072 19.4158 36.176 20.8878 34.832C22.3918 33.488 23.5918 32.176 24.4878 30.896C24.6158 30.736 24.7598 30.704 24.9198 30.8C25.0798 30.864 25.1598 30.928 25.1598 30.992C25.1598 31.472 24.3918 32.528 22.8558 34.16C21.3518 35.76 20.1998 36.848 19.3998 37.424C17.8958 38.544 16.5038 39.104 15.2238 39.104C14.0078 39.104 13.1918 38.496 12.7758 37.28C12.6798 36.896 12.6318 36.464 12.6318 35.984C12.6318 34.544 12.9358 33.024 13.5438 31.424C13.4158 31.488 12.8238 32.128 11.7678 33.344C10.7118 34.56 9.47981 35.728 8.07181 36.848C6.69581 37.968 5.44781 38.528 4.32781 38.528ZM46.4253 31.28C45.9453 32.144 45.0813 33.248 43.8333 34.592C42.5853 35.936 41.4653 36.976 40.4733 37.712C39.1933 38.64 37.8013 39.104 36.2973 39.104C36.0093 39.104 35.6253 38.96 35.1453 38.672C34.6973 38.416 34.3933 38.032 34.2333 37.52C34.0733 37.008 33.9933 36.512 33.9933 36.032C33.9933 34.368 34.3133 32.72 34.9533 31.088C34.8573 31.152 34.4093 31.84 33.6093 33.152C32.8413 34.432 31.8813 35.648 30.7293 36.8C29.6093 37.952 28.4733 38.528 27.3213 38.528C26.7773 38.528 26.1533 38.384 25.4493 38.096C24.1693 37.52 23.5293 36.464 23.5293 34.928C23.5293 33.04 24.1693 31.104 25.4493 29.12C26.7613 27.104 27.5933 26.032 27.9453 25.904C28.4253 25.776 28.8733 25.712 29.2893 25.712C29.7373 25.712 30.1853 25.808 30.6333 26C31.0813 26.16 31.0173 26.448 30.4413 26.864C28.2333 28.88 26.6653 31.12 25.7373 33.584C25.3853 34.544 25.2093 35.36 25.2093 36.032C25.2093 36.672 25.3693 37.088 25.6893 37.28C26.0413 37.472 26.3773 37.568 26.6973 37.568C27.4653 37.568 28.5053 37.04 29.8173 35.984C31.1613 34.896 33.0013 32.656 35.3373 29.264C35.6573 28.784 36.2173 27.856 37.0173 26.48C37.8173 25.072 38.2973 24.24 38.4573 23.984C38.9693 23.984 39.5613 24.112 40.2333 24.368C40.9373 24.592 41.1773 24.896 40.9533 25.28C39.4173 27.84 38.3293 29.728 37.6893 30.944C37.0813 32.16 36.6653 33.584 36.4413 35.216C36.4093 35.504 36.3933 35.872 36.3933 36.32C36.3933 36.768 36.5213 37.136 36.7773 37.424C37.2573 37.936 37.9133 37.968 38.7453 37.52C39.6093 37.04 40.7773 36.144 42.2493 34.832C43.7213 33.488 44.9053 32.176 45.8013 30.896C45.9293 30.736 46.0733 30.704 46.2333 30.8C46.4253 30.864 46.5213 30.944 46.5213 31.04C46.5213 31.104 46.4893 31.184 46.4253 31.28ZM52.9203 24.56C55.3843 24.336 56.8723 24.224 57.3843 24.224C57.9283 24.224 58.2003 24.304 58.2003 24.464C58.2003 24.656 57.8163 24.864 57.0483 25.088C56.3123 25.28 54.4883 25.536 51.5763 25.856C51.4163 26.144 51.2243 26.48 51.0003 26.864C50.5203 27.632 50.2643 28.096 50.2323 28.256C48.4083 31.904 47.4483 34.224 47.3523 35.216C47.3203 35.504 47.3043 35.872 47.3043 36.32C47.3043 36.768 47.4323 37.136 47.6883 37.424C48.1363 37.936 48.7763 37.968 49.6083 37.52C50.4403 37.072 51.5923 36.176 53.0643 34.832C54.5683 33.488 55.7843 32.176 56.7123 30.896C56.8403 30.736 57.0003 30.704 57.1923 30.8C57.6723 31.024 56.8403 32.288 54.6963 34.592C52.6483 36.8 50.9363 38.16 49.5603 38.672C48.7603 38.96 48.0883 39.104 47.5443 39.104C46.2643 39.104 45.4163 38.496 45.0003 37.28C44.9363 37.056 44.9043 36.784 44.9043 36.464C44.9043 35.344 45.4163 33.648 46.4403 31.376C46.2803 31.728 45.6563 32.528 44.5683 33.776C44.2803 34.096 44.0563 34.096 43.8963 33.776C43.8643 33.712 43.8483 33.632 43.8483 33.536C43.8483 33.408 43.9123 33.264 44.0403 33.104C45.6083 31.152 46.8403 29.504 47.7363 28.16C47.7363 28.128 48.0883 27.456 48.7923 26.144C48.4723 26.208 48.1363 26.24 47.7843 26.24C47.4643 26.24 47.2243 26.144 47.0643 25.952C46.9043 25.728 46.8883 25.472 47.0163 25.184C47.2403 24.672 48.0883 24.384 49.5603 24.32C49.5923 24.256 49.6563 24.224 49.7523 24.224L52.1523 19.76C52.2803 19.504 52.4243 19.248 52.5843 18.992C52.7443 18.704 52.8563 18.496 52.9203 18.368C53.0163 18.208 53.1123 18.048 53.2083 17.888C53.3043 17.728 53.3843 17.616 53.4483 17.552C53.5123 17.488 53.5763 17.424 53.6403 17.36C53.7683 17.168 54.1363 17.072 54.7443 17.072C55.3843 17.072 55.8163 17.248 56.0403 17.6C56.1363 17.728 56.1843 17.952 56.1843 18.272C56.1843 18.56 56.0723 18.896 55.8483 19.28C55.6243 19.632 55.3843 19.888 55.1283 20.048C54.8723 20.208 54.6963 20.384 54.6003 20.576L52.2963 24.608L52.9203 24.56ZM66.0044 32.72C66.5804 31.536 66.8684 30.624 66.8684 29.984C66.8684 29.344 66.7884 28.848 66.6284 28.496C66.5004 28.112 66.5644 27.792 66.8204 27.536C67.1084 27.28 67.4604 27.184 67.8764 27.248C68.5164 27.408 68.8364 28.128 68.8364 29.408C68.8364 30.688 68.0844 32.368 66.5804 34.448C66.6124 35.312 67.0604 35.744 67.9244 35.744C68.7884 35.744 70.1004 34.816 71.8604 32.96C72.6924 32 73.2044 31.376 73.3964 31.088C73.6204 30.8 73.8124 30.704 73.9724 30.8C74.1324 30.864 74.2124 30.928 74.2124 30.992C74.2124 31.312 73.6364 32.144 72.4844 33.488C70.6604 35.728 69.0444 36.848 67.6364 36.848C66.7084 36.848 66.0524 36.448 65.6684 35.648C65.0284 36.32 64.4044 36.944 63.7964 37.52C62.5484 38.576 61.1564 39.104 59.6204 39.104C58.7564 39.104 58.0364 38.896 57.4604 38.48C56.3404 37.808 55.7804 36.608 55.7804 34.88C55.7804 32.992 56.4204 31.072 57.7004 29.12C58.4364 27.968 59.3004 26.96 60.2924 26.096C61.8604 24.72 63.3484 24.032 64.7564 24.032C65.1084 24.032 65.4444 24.08 65.7644 24.176C66.7244 24.496 67.2044 25.104 67.2044 26C67.2044 26.736 67.0124 27.104 66.6284 27.104C66.4684 27.04 66.3884 26.8 66.3884 26.384C66.3884 25.808 66.0684 25.52 65.4284 25.52C64.3084 25.52 62.8684 26.544 61.1084 28.592C59.3484 30.64 58.2924 32.704 57.9404 34.784C57.8764 35.136 57.8444 35.536 57.8444 35.984C57.8444 36.4 57.9884 36.896 58.2764 37.472C58.5644 38.016 59.0924 38.288 59.8604 38.288C60.6604 38.288 61.5244 37.936 62.4524 37.232C63.3804 36.528 64.2124 35.632 64.9484 34.544L64.8044 34.256C64.6764 33.744 64.7404 33.328 64.9964 33.008C65.2524 32.688 65.5884 32.592 66.0044 32.72ZM85.5086 29.264C86.9486 27.984 88.4366 26.896 89.9726 26C91.5086 25.104 92.7246 24.544 93.6206 24.32C94.5166 24.096 95.3966 23.984 96.2606 23.984C97.1246 23.984 97.9406 24.272 98.7086 24.848C103.093 14.672 107.285 9.584 111.285 9.584C112.629 9.584 113.541 9.968 114.021 10.736C114.245 11.12 114.357 11.456 114.357 11.744C114.357 12.544 114.005 13.568 113.301 14.816C112.629 16.032 111.573 17.376 110.133 18.848C108.693 20.32 106.629 22.144 103.941 24.32C101.253 26.464 99.7646 27.664 99.4766 27.92C98.4526 30.288 97.6526 32.576 97.0766 34.784C96.5006 36.992 96.2126 38.64 96.2126 39.728C96.2126 40.816 96.4046 41.68 96.7886 42.32C96.9806 42.736 97.2686 42.976 97.6526 43.04C98.0366 43.136 98.3566 43.088 98.6126 42.896C98.9006 42.736 99.1086 42.592 99.2366 42.464C99.3966 42.336 99.5726 42.208 99.7646 42.08C99.9886 41.984 100.149 41.968 100.245 42.032C100.341 42.096 100.325 42.272 100.197 42.56C99.9406 42.88 99.7006 43.152 99.4766 43.376C98.9646 43.728 98.3566 43.904 97.6526 43.904C96.9806 43.904 96.5326 43.888 96.3086 43.856C94.7726 43.6 94.0046 42.48 94.0046 40.496C94.0046 38.576 94.2606 36.8 94.7726 35.168C95.4766 32.928 96.1166 31.072 96.6926 29.6C91.5726 35.552 87.9406 38.528 85.7966 38.528C85.2846 38.528 84.7246 38.368 84.1166 38.048C83.5406 37.76 83.0446 37.344 82.6286 36.8C82.2126 36.224 82.0046 35.616 82.0046 34.976C82.0046 34.336 82.1486 33.728 82.4366 33.152C83.0766 31.808 84.1006 30.512 85.5086 29.264ZM98.3246 25.616C97.9406 25.424 97.2686 25.328 96.3086 25.328C95.3486 25.328 94.1006 25.728 92.5646 26.528C91.0606 27.296 89.6366 28.272 88.2926 29.456C87.1726 30.512 86.1806 31.712 85.3166 33.056C84.4846 34.368 84.0686 35.328 84.0686 35.936C84.0686 37.12 84.4046 37.712 85.0766 37.712C85.7486 37.712 86.7726 37.168 88.1486 36.08C91.7006 33.168 94.8686 30.224 97.6526 27.248L98.3246 25.616ZM112.389 13.52C112.805 12.752 113.013 12.112 113.013 11.6C113.013 11.056 112.773 10.784 112.293 10.784C111.845 10.784 111.237 11.072 110.469 11.648C106.949 14.336 103.765 18.832 100.917 25.136C102.997 23.792 105.173 22 107.445 19.76C109.717 17.52 111.365 15.44 112.389 13.52ZM112.485 24.032C114.213 24.032 115.077 24.864 115.077 26.528C115.077 27.392 114.837 28.096 114.357 28.64C113.557 29.824 112.261 30.864 110.469 31.76C108.677 32.624 107.157 33.104 105.909 33.2C105.461 33.232 105.221 33.104 105.189 32.816C105.157 32.688 105.189 32.608 105.285 32.576C105.413 32.544 105.509 32.528 105.573 32.528C106.309 32.464 107.253 32.112 108.405 31.472C110.549 30.32 112.117 29.136 113.109 27.92C113.525 27.344 113.733 26.8 113.733 26.288C113.733 25.744 113.477 25.472 112.965 25.472C112.549 25.472 111.989 25.648 111.285 26C109.781 26.704 108.197 27.936 106.533 29.696C104.869 31.424 103.781 33.12 103.269 34.784C103.109 35.296 103.029 35.808 103.029 36.32C103.029 36.8 103.237 37.264 103.653 37.712C104.069 38.16 104.709 38.384 105.573 38.384C106.533 38.384 107.637 38.128 108.885 37.616C112.501 36.144 115.285 33.92 117.237 30.944C117.429 30.688 117.605 30.64 117.765 30.8C117.893 30.864 117.957 30.944 117.957 31.04C117.957 31.136 117.909 31.248 117.813 31.376C116.853 32.976 115.637 34.4 114.165 35.648C111.317 38.08 108.549 39.296 105.861 39.296C103.557 39.296 101.941 38.608 101.013 37.232C100.661 36.688 100.485 36.032 100.485 35.264C100.485 34.496 100.693 33.584 101.109 32.528C101.909 30.704 103.621 28.832 106.245 26.912C108.869 24.992 110.949 24.032 112.485 24.032ZM143.881 13.52C144.265 12.816 144.457 12.272 144.457 11.888C144.457 11.216 144.185 10.88 143.641 10.88C143.193 10.88 142.633 11.136 141.961 11.648C139.401 13.632 136.921 16.768 134.521 21.056C132.601 24.512 131.193 27.472 130.297 29.936C132.505 28.432 134.969 25.984 137.689 22.592C140.441 19.2 142.505 16.176 143.881 13.52ZM129.577 31.856C129.193 32.944 128.985 33.68 128.953 34.064C128.921 34.416 128.905 34.912 128.905 35.552C128.905 36.16 129.065 36.72 129.385 37.232C129.929 38.096 130.841 38.16 132.121 37.424C133.081 36.912 134.297 35.984 135.769 34.64C137.241 33.264 138.377 32.016 139.177 30.896C139.241 30.8 139.337 30.752 139.465 30.752C139.753 30.752 139.833 30.96 139.705 31.376C139.225 32.24 138.329 33.344 137.017 34.688C135.737 36.032 134.569 37.104 133.513 37.904C132.457 38.672 131.401 39.056 130.345 39.056C127.913 39.056 126.697 37.872 126.697 35.504C126.697 35.408 126.697 35.312 126.697 35.216C126.825 32.976 127.961 29.6 130.105 25.088C132.249 20.544 134.185 17.12 135.913 14.816L137.401 12.944C137.753 12.528 138.265 12.016 138.937 11.408C140.217 10.192 141.529 9.584 142.873 9.584C144.249 9.584 145.177 10 145.657 10.832C145.817 11.12 145.897 11.536 145.897 12.08C145.897 12.624 145.657 13.392 145.177 14.384C141.881 20.112 136.681 25.936 129.577 31.856ZM161.082 31.28C160.602 32.144 159.738 33.248 158.49 34.592C157.242 35.936 156.122 36.976 155.13 37.712C153.85 38.64 152.458 39.104 150.954 39.104C150.666 39.104 150.282 38.96 149.802 38.672C149.354 38.416 149.05 38.032 148.89 37.52C148.73 37.008 148.65 36.512 148.65 36.032C148.65 34.368 148.97 32.72 149.61 31.088C149.514 31.152 149.066 31.84 148.266 33.152C147.498 34.432 146.538 35.648 145.386 36.8C144.266 37.952 143.13 38.528 141.978 38.528C141.434 38.528 140.81 38.384 140.106 38.096C138.826 37.52 138.186 36.464 138.186 34.928C138.186 33.04 138.826 31.104 140.106 29.12C141.418 27.104 142.25 26.032 142.602 25.904C143.082 25.776 143.53 25.712 143.946 25.712C144.394 25.712 144.842 25.808 145.29 26C145.738 26.16 145.674 26.448 145.098 26.864C142.89 28.88 141.322 31.12 140.394 33.584C140.042 34.544 139.866 35.36 139.866 36.032C139.866 36.672 140.026 37.088 140.346 37.28C140.698 37.472 141.034 37.568 141.354 37.568C142.122 37.568 143.162 37.04 144.474 35.984C145.818 34.896 147.658 32.656 149.994 29.264C150.314 28.784 150.874 27.856 151.674 26.48C152.474 25.072 152.954 24.24 153.114 23.984C153.626 23.984 154.218 24.112 154.89 24.368C155.594 24.592 155.834 24.896 155.61 25.28C154.074 27.84 152.986 29.728 152.346 30.944C151.738 32.16 151.322 33.584 151.098 35.216C151.066 35.504 151.05 35.872 151.05 36.32C151.05 36.768 151.178 37.136 151.434 37.424C151.914 37.936 152.57 37.968 153.402 37.52C154.266 37.04 155.434 36.144 156.906 34.832C158.378 33.488 159.562 32.176 160.458 30.896C160.586 30.736 160.73 30.704 160.89 30.8C161.082 30.864 161.178 30.944 161.178 31.04C161.178 31.104 161.146 31.184 161.082 31.28ZM178.473 25.328C178.473 25.712 178.105 25.904 177.369 25.904C175.705 26.544 174.185 27.456 172.809 28.64L169.353 31.328C169.353 32.256 169.945 33.792 171.129 35.936C171.673 36.992 172.361 37.52 173.193 37.52C174.057 37.52 175.065 36.928 176.217 35.744C176.761 35.168 178.073 33.552 180.153 30.896C180.313 30.704 180.457 30.656 180.585 30.752C180.745 30.848 180.825 30.944 180.825 31.04C180.825 31.136 180.793 31.248 180.729 31.376C179.257 33.616 177.785 35.44 176.313 36.848C174.809 38.224 173.417 38.912 172.137 38.912C171.881 38.912 171.625 38.88 171.369 38.816C169.769 38.464 168.409 36.608 167.289 33.248C160.761 39.872 157.433 44.544 157.305 47.264C157.305 47.648 157.193 47.84 156.969 47.84L156.729 47.744C156.601 47.616 156.537 47.456 156.537 47.264C156.537 45.536 157.385 43.44 159.081 40.976C160.777 38.544 162.473 36.432 164.169 34.64C165.865 32.848 166.713 31.904 166.713 31.808C166.713 31.04 166.489 30.272 166.041 29.504C165.593 28.704 165.225 28.256 164.937 28.16C164.649 28.032 164.345 28.064 164.025 28.256C163.513 28.576 162.985 29.088 162.441 29.792C161.929 30.464 161.625 30.848 161.529 30.944C161.465 31.04 161.369 31.168 161.241 31.328C161.113 31.488 160.969 31.664 160.809 31.856C160.649 32.016 160.473 32.096 160.281 32.096C160.121 32.064 160.041 31.968 160.041 31.808C160.041 31.648 160.105 31.488 160.233 31.328C160.361 31.136 160.729 30.624 161.337 29.792C161.977 28.96 162.505 28.272 162.921 27.728C163.369 27.152 163.881 26.608 164.457 26.096C165.065 25.584 165.593 25.328 166.041 25.328C166.489 25.328 166.905 25.488 167.289 25.808C167.673 26.128 167.929 26.448 168.057 26.768C168.185 27.088 168.361 27.664 168.585 28.496C168.841 29.296 169.017 29.84 169.113 30.128C171.513 27.76 173.913 25.824 176.313 24.32C176.569 24.224 176.809 24.176 177.033 24.176L177.753 24.32C178.233 24.544 178.473 24.88 178.473 25.328ZM190.672 24.032C192.4 24.032 193.264 24.864 193.264 26.528C193.264 27.392 193.024 28.096 192.544 28.64C191.744 29.824 190.448 30.864 188.656 31.76C186.864 32.624 185.344 33.104 184.096 33.2C183.648 33.232 183.408 33.104 183.376 32.816C183.344 32.688 183.376 32.608 183.472 32.576C183.6 32.544 183.696 32.528 183.76 32.528C184.496 32.464 185.44 32.112 186.592 31.472C188.736 30.32 190.304 29.136 191.296 27.92C191.712 27.344 191.92 26.8 191.92 26.288C191.92 25.744 191.664 25.472 191.152 25.472C190.736 25.472 190.176 25.648 189.472 26C187.968 26.704 186.384 27.936 184.72 29.696C183.056 31.424 181.968 33.12 181.456 34.784C181.296 35.296 181.216 35.808 181.216 36.32C181.216 36.8 181.424 37.264 181.84 37.712C182.256 38.16 182.896 38.384 183.76 38.384C184.72 38.384 185.824 38.128 187.072 37.616C190.688 36.144 193.472 33.92 195.424 30.944C195.616 30.688 195.792 30.64 195.952 30.8C196.08 30.864 196.144 30.944 196.144 31.04C196.144 31.136 196.096 31.248 196 31.376C195.04 32.976 193.824 34.4 192.352 35.648C189.504 38.08 186.736 39.296 184.048 39.296C181.744 39.296 180.128 38.608 179.2 37.232C178.848 36.688 178.672 36.032 178.672 35.264C178.672 34.496 178.88 33.584 179.296 32.528C180.096 30.704 181.808 28.832 184.432 26.912C187.056 24.992 189.136 24.032 190.672 24.032Z" fill="white"/>
</svg>
